<?xml version="1.0" encoding="UTF-8" standalone="no"?><!DOCTYPE svg PUBLIC "-//W3C//DTD SVG 1.1//EN" "http://www.w3.org/Graphics/SVG/1.1/DTD/svg11.dtd"><svg width="100%" height="100%" viewBox="0 0 384 384" version="1.1" xmlns="http://www.w3.org/2000/svg" xmlns:xlink="http://www.w3.org/1999/xlink" xml:space="preserve" xmlns:serif="http://www.serif.com/" style="fill-rule:evenodd;clip-rule:evenodd;stroke-linejoin:round;stroke-miterlimit:2;"><g><path d="M135.747,135.747c62.094,-0 112.506,50.412 112.506,112.506c0,62.095 -50.412,112.507 -112.506,112.507c-62.095,0 -112.507,-50.412 -112.507,-112.507c-0,-62.094 50.412,-112.506 112.507,-112.506Zm-0,13.303c54.752,-0 99.203,44.451 99.203,99.203c0,54.752 -44.451,99.204 -99.203,99.204c-54.752,-0 -99.204,-44.452 -99.204,-99.204c0,-54.752 44.452,-99.203 99.204,-99.203Z" style="fill:#1ea896;"/><path d="M191.976,23.24c62.095,-0 112.507,50.412 112.507,112.507c0,62.094 -50.412,112.506 -112.507,112.506c-62.094,0 -112.506,-50.412 -112.506,-112.506c-0,-62.095 50.412,-112.507 112.506,-112.507Zm0,13.544c54.619,-0 98.963,44.344 98.963,98.963c0,54.619 -44.344,98.962 -98.963,98.962c-54.619,0 -98.962,-44.343 -98.962,-98.962c-0,-54.619 44.343,-98.963 98.962,-98.963Z" style="fill:#1ea896;"/><path d="M248.253,135.747c62.095,-0 112.507,50.412 112.507,112.506c0,62.095 -50.412,112.507 -112.507,112.507c-62.094,0 -112.506,-50.412 -112.506,-112.507c-0,-62.094 50.412,-112.506 112.506,-112.506Zm0,13.3c54.754,0 99.207,44.453 99.207,99.206c-0,54.754 -44.453,99.207 -99.207,99.207c-54.753,-0 -99.206,-44.453 -99.206,-99.207c0,-54.753 44.453,-99.206 99.206,-99.206Z" style="fill:#1ea896;"/></g><rect x="0" y="-0" width="384" height="416.966" style="fill:none;"/></svg>